<svg width="25" height="24" viewBox="0 0 25 24" fill="none" xmlns="http://www.w3.org/2000/svg"><rect x="0.0744629" width="24" height="24" rx="4" fill="#081125"></rect><path d="M11.6676 14.5611H13.3459C13.7323 14.5611 14.0456 14.2567 14.0456 13.8811C14.0456 13.5056 13.7323 13.2011 13.3459 13.2011H11.6676C11.2812 13.2011 10.9679 13.5056 10.9679 13.8811C10.9679 14.2567 11.2812 14.5611 11.6676 14.5611ZM18.0424 17.5167C16.8889 18.2523 15.4026 18.64 13.7449 18.64H11.6676C11.2812 18.64 10.9679 18.9445 10.9679 19.32C10.9679 19.6956 11.2812 20 11.6676 20H13.7449C15.6759 20 17.4285 19.5345 18.8107 18.6534C19.1331 18.4478 19.2234 18.0256 19.0119 17.7122C18.7992 17.3978 18.366 17.31 18.0436 17.5167H18.0424ZM16.0028 12.8089C15.709 12.5834 15.2563 12.6323 15.0208 12.9156L15.0185 12.9178C14.9042 13.0589 14.8504 13.2355 14.8699 13.4156C14.8893 13.5978 14.9819 13.7578 15.1271 13.8722C15.2529 13.97 15.4038 14.0222 15.5661 14.0222C15.7788 14.0222 15.9777 13.93 16.1115 13.7667C16.1115 13.7667 16.1115 13.7645 16.1149 13.7645C16.3527 13.4711 16.3024 13.0434 16.0028 12.81V12.8089ZM11.6676 10.7989H13.3459C13.3494 10.7989 13.3516 10.7989 13.355 10.7989H13.7609C14.2365 10.7989 14.6058 10.8478 14.8013 10.9345C14.983 11.0244 15.0391 11.0622 15.1374 11.3211C15.23 11.61 15.4987 11.8 15.8062 11.8H15.8097C15.8794 11.8 15.9468 11.7889 16.0143 11.77C16.1938 11.7155 16.3389 11.5955 16.4259 11.4356C16.5127 11.2756 16.5299 11.0933 16.4762 10.9189C16.3104 10.3667 15.8863 9.89333 15.3626 9.68665C14.8733 9.48556 14.352 9.44223 13.7254 9.4389H13.3562C13.3528 9.4389 13.3505 9.4389 13.3471 9.4389H11.6687C11.2823 9.4389 10.9691 9.74332 10.9691 10.1189C10.9691 10.4944 11.2823 10.7989 11.6687 10.7989H11.6676ZM11.6676 8.08H13.7243C14.4286 8.08 15.0631 8.17001 15.6107 8.3489C15.685 8.37334 15.7593 8.38445 15.8337 8.38445C16.1263 8.38445 16.3984 8.20445 16.4967 7.92001C16.6202 7.56445 16.4224 7.17889 16.0554 7.05889C15.3637 6.83334 14.5795 6.71889 13.7243 6.71889H11.6676C11.2812 6.71889 10.9679 7.02334 10.9679 7.39889C10.9679 7.77445 11.2812 8.0789 11.6676 8.0789V8.08ZM20.6811 15.7189C20.3713 15.5178 19.9196 15.6044 19.7161 15.9045C19.7127 15.9045 19.7127 15.9067 19.7104 15.91C19.4978 16.22 19.587 16.6445 19.9059 16.8511C20.0203 16.9278 20.1551 16.9656 20.2924 16.9656C20.5279 16.9656 20.7451 16.8511 20.8766 16.6611C21.0892 16.3489 21.0023 15.9267 20.6811 15.72V15.7189ZM21.3304 8.11111C20.7428 6.96889 19.8979 6.04445 18.8153 5.35667C18.813 5.35556 18.8118 5.35334 18.8096 5.35222C17.4228 4.46667 15.6656 4 13.7254 4H11.6687C11.2823 4 10.9691 4.30444 10.9691 4.68C10.9691 5.05556 11.2823 5.36 11.6687 5.36H13.7254C15.3923 5.36 16.8855 5.75 18.0424 6.48778C18.0436 6.48778 18.0447 6.48778 18.0459 6.49001C18.0459 6.49001 18.047 6.49111 18.0481 6.49223C19.8499 7.65334 20.8091 9.55667 20.8182 12.0011C20.8182 12.6189 20.7543 13.2133 20.6251 13.7745C20.5862 13.9511 20.6193 14.1333 20.7199 14.2856C20.8205 14.44 20.9749 14.5467 21.1566 14.5845C21.2069 14.5956 21.2572 14.6011 21.3076 14.6011H21.3098C21.6323 14.6011 21.9203 14.3778 21.9901 14.0711L21.9924 14.0689C22.141 13.4167 22.2165 12.72 22.2165 12.0022C22.2188 10.5689 21.9226 9.26112 21.3293 8.11111H21.3304ZM18.5889 10.5389C18.4037 10.5611 18.2391 10.6534 18.1213 10.7945C18.007 10.9389 17.9567 11.1155 17.9784 11.2978C18.0058 11.5234 18.0207 11.76 18.0207 12.0022C18.0207 12.97 17.8023 13.7756 17.3771 14.3956C16.9712 14.9889 16.395 15.3989 15.6175 15.6545C15.6141 15.6545 15.6118 15.6567 15.6084 15.6578C15.0665 15.8334 14.44 15.9222 13.7449 15.9222H11.6676C11.2812 15.9222 10.9679 16.2267 10.9679 16.6022C10.9679 16.9778 11.2812 17.2822 11.6676 17.2822H13.7449C14.5932 17.2822 15.3706 17.1689 16.0566 16.9455H16.0612C16.0692 16.94 16.0806 16.9378 16.0898 16.9345C17.1301 16.5911 17.9784 15.9745 18.5432 15.15C19.1251 14.2989 19.4189 13.2411 19.4189 12.0011C19.4189 11.7078 19.4018 11.4133 19.3663 11.1334C19.3218 10.7633 18.9719 10.4944 18.5889 10.5378V10.5389ZM17.8115 9.71224C17.9681 9.71224 18.1133 9.66336 18.2368 9.57112C18.3877 9.46001 18.4826 9.2989 18.5055 9.12001C18.5306 8.94001 18.4803 8.76334 18.3683 8.62C18.3683 8.62 18.3683 8.61667 18.366 8.61667C18.1396 8.32889 17.6835 8.27112 17.3862 8.49112C17.2376 8.60223 17.1427 8.76334 17.1175 8.94223C17.0947 9.12223 17.1427 9.30112 17.257 9.44556C17.3907 9.61445 17.5919 9.71224 17.8104 9.71224H17.8115Z" fill="url(#0.12510645168136647a)"></path><path d="M2.68824 13.8819C2.68824 14.2574 3.00378 14.5618 3.39021 14.5618C3.77663 14.5618 4.08989 14.2574 4.08989 13.8819V10.1174C4.08989 9.74182 3.77663 9.4374 3.39021 9.4374H3.38449C2.99807 9.43851 2.68824 9.74294 2.68824 10.1174C2.68824 10.1374 2.68824 10.1574 2.69053 10.1774V13.8196C2.68824 13.8396 2.68824 13.8596 2.68824 13.8807V13.8819ZM6.1912 11.0652C5.80478 11.0652 5.49152 11.373 5.49152 11.7474C5.49152 12.1219 5.80478 12.4241 6.1912 12.4241C6.57762 12.4241 6.89088 12.1196 6.89088 11.7474C6.89088 11.3752 6.57762 11.0652 6.1912 11.0652ZM6.89088 7.40184C6.89088 7.22184 6.81771 7.05072 6.68623 6.92295C6.55475 6.79295 6.3787 6.72406 6.1912 6.72406H3.38449C2.99807 6.72406 2.68481 7.0285 2.68481 7.40073C2.68481 7.77295 2.99807 8.08295 3.38449 8.08295C3.38677 8.08295 3.38677 8.07962 3.39021 8.07962H5.49038V9.29517C5.49038 9.67071 5.80363 9.97516 6.19006 9.97516C6.57648 9.97516 6.88973 9.67071 6.88973 9.29517V7.40184H6.89088ZM8.99103 4.0085H3.38449C2.99807 4.0085 2.68481 4.31294 2.68481 4.6885C2.68481 5.06406 2.99807 5.3685 3.38449 5.3685H8.29137V18.6308H3.38449C2.99807 18.6308 2.68481 18.9352 2.68481 19.3108C2.68481 19.6863 2.99807 19.9907 3.38449 19.9907H8.99103C9.37744 19.9907 9.69074 19.6863 9.69074 19.3108V4.6885C9.69074 4.31294 9.37744 4.0085 8.99103 4.0085ZM3.38449 17.2763H6.19006C6.37755 17.2763 6.55361 17.2052 6.68509 17.0774C6.81656 16.9497 6.88973 16.7785 6.88973 16.5963V14.193C6.88973 13.8174 6.57648 13.513 6.19006 13.513C5.80363 13.513 5.49381 13.8174 5.49038 14.1896V15.9163H3.38449C2.99807 15.9163 2.68481 16.2208 2.68481 16.5963C2.68481 16.9718 2.99807 17.2763 3.38449 17.2763Z" fill="url(#0.9884850214000191b)"></path><defs><linearGradient id="0.12510645168136647a" x1="10.6146" y1="19.5145" x2="18.6271" y2="5.23538" gradientUnits="userSpaceOnUse"><stop stop-color="#E8632E"></stop><stop offset="0.05" stop-color="#DB7336"></stop><stop offset="0.26" stop-color="#A6BC5D"></stop><stop offset="0.36" stop-color="#91D96D"></stop><stop offset="0.41" stop-color="#85D677"></stop><stop offset="0.59" stop-color="#5ECE98"></stop><stop offset="0.75" stop-color="#42C8B0"></stop><stop offset="0.89" stop-color="#31C5BE"></stop><stop offset="1" stop-color="#2CC4C4"></stop></linearGradient><linearGradient id="0.9884850214000191b" x1="1.87996" y1="19.2519" x2="10.1322" y2="4.54352" gradientUnits="userSpaceOnUse"><stop stop-color="#E8632E"></stop><stop offset="0.05" stop-color="#DB7336"></stop><stop offset="0.26" stop-color="#A6BC5D"></stop><stop offset="0.36" stop-color="#91D96D"></stop><stop offset="0.41" stop-color="#85D677"></stop><stop offset="0.59" stop-color="#5ECE98"></stop><stop offset="0.75" stop-color="#42C8B0"></stop><stop offset="0.89" stop-color="#31C5BE"></stop><stop offset="1" stop-color="#2CC4C4"></stop></linearGradient></defs></svg>