<svg width="1em" height="1em" viewBox="0 0 111 24" fill="none" xmlns="http://www.w3.org/2000/svg" focusable="false" class="chakra-icon css-1nshgff"><path d="M21.727 24h4.354V10.91h4.355V24h4.355V10.91h4.356V24H43.5V6.548H21.727V24ZM50.034 6.547H45.68V24h4.354V6.547ZM50.034 0H45.68v4.363h4.354V0ZM52.21 24h4.356V10.91h4.354V24h4.355V6.548H52.21V24ZM76.162 0H71.81v6.546h-4.356v4.364h4.356V24h4.353V10.91h4.357V6.546h-4.357V0ZM82.695 24H95.76v-4.363H87.05v-2.18h8.71V6.546H82.694V24Zm4.355-13.09h4.355v2.181H87.05v-2.18ZM106.647 0v6.546h-8.71V24h13.064V0h-4.354Zm0 19.637h-4.355V10.91h4.355v8.727ZM10.855 6.547H6.5v6.546h4.355V6.547Z" fill="currentColor"></path><path d="M13.013 19.637H0v4.364h17.357v-3.294h.01V6.547h-4.354v13.09ZM4.362 6.547H.008v6.546h4.354V6.547Z" fill="currentColor"></path></svg>